<svg width="22" height="21" viewBox="0 0 22 21" fill="none" xmlns="http://www.w3.org/2000/svg">
<path d="M11.1016 17.1094C12.7266 15.6536 13.9284 14.5534 14.707 13.8086C15.4857 13.0638 16.332 12.1836 17.2461 11.168C18.1602 10.1523 18.7865 9.25521 19.125 8.47656C19.4974 7.69792 19.6836 6.9362 19.6836 6.19141C19.6836 5.10807 19.3112 4.21094 18.5664 3.5C17.8555 2.78906 16.9583 2.43359 15.875 2.43359C15.0286 2.43359 14.2331 2.67057 13.4883 3.14453C12.7773 3.61849 12.2865 4.22786 12.0156 4.97266H9.98438C9.71354 4.22786 9.20573 3.61849 8.46094 3.14453C7.75 2.67057 6.97135 2.43359 6.125 2.43359C5.04167 2.43359 4.1276 2.78906 3.38281 3.5C2.67188 4.21094 2.31641 5.10807 2.31641 6.19141C2.31641 6.9362 2.48568 7.69792 2.82422 8.47656C3.19661 9.25521 3.83984 10.1523 4.75391 11.168C5.66797 12.1836 6.51432 13.0638 7.29297 13.8086C8.07161 14.5534 9.27344 15.6536 10.8984 17.1094L11 17.2109L11.1016 17.1094ZM15.875 0.25C17.5677 0.25 18.9727 0.825521 20.0898 1.97656C21.2409 3.1276 21.8164 4.53255 21.8164 6.19141C21.8164 7.17318 21.6302 8.13802 21.2578 9.08594C20.8854 10 20.1914 11.0326 19.1758 12.1836C18.194 13.3346 17.2969 14.2995 16.4844 15.0781C15.6719 15.8568 14.3685 17.0586 12.5742 18.6836L11 20.1055L9.42578 18.7344C7.08984 16.6354 5.39714 15.0612 4.34766 14.0117C3.33203 12.9622 2.38411 11.7266 1.50391 10.3047C0.623698 8.88281 0.183594 7.51172 0.183594 6.19141C0.183594 4.53255 0.742188 3.1276 1.85938 1.97656C3.01042 0.825521 4.43229 0.25 6.125 0.25C8.08854 0.25 9.71354 1.01172 11 2.53516C12.2865 1.01172 13.9115 0.25 15.875 0.25Z" fill="#EE6352"/>
</svg>
