<svg width="22" height="21" viewBox="0 0 22 21" fill="none" xmlns="http://www.w3.org/2000/svg">
<path d="M11 20.1055L9.42578 18.6836C7.63151 17.0586 6.32812 15.8568 5.51562 15.0781C4.70312 14.2995 3.78906 13.3346 2.77344 12.1836C1.79167 11.0326 1.11458 10 0.742188 9.08594C0.369792 8.13802 0.183594 7.17318 0.183594 6.19141C0.183594 4.53255 0.742188 3.1276 1.85938 1.97656C3.01042 0.825521 4.43229 0.25 6.125 0.25C8.08854 0.25 9.71354 1.01172 11 2.53516C12.2865 1.01172 13.9115 0.25 15.875 0.25C17.5677 0.25 18.9727 0.825521 20.0898 1.97656C21.2409 3.1276 21.8164 4.53255 21.8164 6.19141C21.8164 7.51172 21.3763 8.88281 20.4961 10.3047C19.6159 11.7266 18.651 12.9622 17.6016 14.0117C16.5859 15.0612 14.9102 16.6354 12.5742 18.7344L11 20.1055Z" fill="#EE6352"/>
</svg>
