<svg width="330" height="195" viewBox="0 0 330 195" fill="none" xmlns="http://www.w3.org/2000/svg">
<path opacity="0.95" d="M20.2283 50.882C20.1592 45.7217 24.0281 41.3564 29.1593 40.8052L299.178 11.7985C304.522 11.2244 309.364 14.9774 310.141 20.2959L324.502 118.606C325.26 123.797 321.878 128.692 316.754 129.818L175.499 160.864L34.1232 191.796C27.9402 193.148 22.0715 188.489 21.9868 182.161L20.2283 50.882Z" fill="url(#paint0_linear)"/>
<path d="M65.62 114.532C65.62 113.164 65.836 111.88 66.268 110.68C66.724 109.456 67.372 108.4 68.212 107.512C69.052 106.6 70.072 105.88 71.272 105.352C72.472 104.824 73.84 104.56 75.376 104.56C76.384 104.56 77.308 104.656 78.148 104.848C78.988 105.016 79.804 105.268 80.596 105.604L79.48 109.888C78.976 109.696 78.424 109.528 77.824 109.384C77.224 109.24 76.552 109.168 75.808 109.168C74.224 109.168 73.036 109.66 72.244 110.644C71.476 111.628 71.092 112.924 71.092 114.532C71.092 116.236 71.452 117.556 72.172 118.492C72.916 119.428 74.2 119.896 76.024 119.896C76.672 119.896 77.368 119.836 78.112 119.716C78.856 119.596 79.54 119.404 80.164 119.14L80.92 123.532C80.296 123.796 79.516 124.024 78.58 124.216C77.644 124.408 76.612 124.504 75.484 124.504C73.756 124.504 72.268 124.252 71.02 123.748C69.772 123.22 68.74 122.512 67.924 121.624C67.132 120.736 66.544 119.692 66.16 118.492C65.8 117.268 65.62 115.948 65.62 114.532ZM84.52 124V96.928L89.884 96.064V105.136C90.244 105.016 90.7 104.908 91.252 104.812C91.828 104.692 92.38 104.632 92.908 104.632C94.444 104.632 95.716 104.848 96.724 105.28C97.756 105.688 98.572 106.276 99.172 107.044C99.796 107.812 100.228 108.724 100.468 109.78C100.732 110.836 100.864 112.012 100.864 113.308V124H95.5V113.956C95.5 112.228 95.272 111.004 94.816 110.284C94.384 109.564 93.568 109.204 92.368 109.204C91.888 109.204 91.432 109.252 91 109.348C90.592 109.42 90.22 109.504 89.884 109.6V124H84.52ZM111.083 124H105.719V105.064H111.083V124ZM111.587 99.592C111.587 100.576 111.263 101.356 110.615 101.932C109.991 102.484 109.247 102.76 108.383 102.76C107.519 102.76 106.763 102.484 106.115 101.932C105.491 101.356 105.179 100.576 105.179 99.592C105.179 98.608 105.491 97.84 106.115 97.288C106.763 96.712 107.519 96.424 108.383 96.424C109.247 96.424 109.991 96.712 110.615 97.288C111.263 97.84 111.587 98.608 111.587 99.592ZM127.537 109.816C127.057 109.696 126.493 109.576 125.845 109.456C125.197 109.312 124.501 109.24 123.757 109.24C123.421 109.24 123.013 109.276 122.533 109.348C122.077 109.396 121.729 109.456 121.489 109.528V124H116.125V106.072C117.085 105.736 118.213 105.424 119.509 105.136C120.829 104.824 122.293 104.668 123.901 104.668C124.189 104.668 124.537 104.692 124.945 104.74C125.353 104.764 125.761 104.812 126.169 104.884C126.577 104.932 126.985 105.004 127.393 105.1C127.801 105.172 128.149 105.268 128.437 105.388L127.537 109.816ZM136.677 124H131.313V105.064H136.677V124ZM137.181 99.592C137.181 100.576 136.857 101.356 136.209 101.932C135.585 102.484 134.841 102.76 133.977 102.76C133.113 102.76 132.357 102.484 131.709 101.932C131.085 101.356 130.773 100.576 130.773 99.592C130.773 98.608 131.085 97.84 131.709 97.288C132.357 96.712 133.113 96.424 133.977 96.424C134.841 96.424 135.585 96.712 136.209 97.288C136.857 97.84 137.181 98.608 137.181 99.592ZM140.819 114.676C140.819 112.996 141.071 111.532 141.575 110.284C142.103 109.012 142.787 107.956 143.627 107.116C144.467 106.276 145.427 105.64 146.507 105.208C147.611 104.776 148.739 104.56 149.891 104.56C152.579 104.56 154.703 105.388 156.263 107.044C157.823 108.676 158.603 111.088 158.603 114.28C158.603 114.592 158.591 114.94 158.567 115.324C158.543 115.684 158.519 116.008 158.495 116.296H146.327C146.447 117.4 146.963 118.276 147.875 118.924C148.787 119.572 150.011 119.896 151.547 119.896C152.531 119.896 153.491 119.812 154.427 119.644C155.387 119.452 156.167 119.224 156.767 118.96L157.487 123.316C157.199 123.46 156.815 123.604 156.335 123.748C155.855 123.892 155.315 124.012 154.715 124.108C154.139 124.228 153.515 124.324 152.843 124.396C152.171 124.468 151.499 124.504 150.827 124.504C149.123 124.504 147.635 124.252 146.363 123.748C145.115 123.244 144.071 122.56 143.231 121.696C142.415 120.808 141.803 119.764 141.395 118.564C141.011 117.364 140.819 116.068 140.819 114.676ZM153.419 112.624C153.395 112.168 153.311 111.724 153.167 111.292C153.047 110.86 152.843 110.476 152.555 110.14C152.291 109.804 151.943 109.528 151.511 109.312C151.103 109.096 150.587 108.988 149.963 108.988C149.363 108.988 148.847 109.096 148.415 109.312C147.983 109.504 147.623 109.768 147.335 110.104C147.047 110.44 146.819 110.836 146.651 111.292C146.507 111.724 146.399 112.168 146.327 112.624H153.419ZM168.179 120.148C169.163 120.148 169.859 120.052 170.267 119.86C170.675 119.668 170.879 119.296 170.879 118.744C170.879 118.312 170.615 117.94 170.087 117.628C169.559 117.292 168.755 116.92 167.675 116.512C166.835 116.2 166.067 115.876 165.371 115.54C164.699 115.204 164.123 114.808 163.643 114.352C163.163 113.872 162.791 113.308 162.527 112.66C162.263 112.012 162.131 111.232 162.131 110.32C162.131 108.544 162.791 107.14 164.111 106.108C165.431 105.076 167.243 104.56 169.547 104.56C170.699 104.56 171.803 104.668 172.859 104.884C173.915 105.076 174.755 105.292 175.379 105.532L174.443 109.708C173.819 109.492 173.135 109.3 172.391 109.132C171.671 108.964 170.855 108.88 169.943 108.88C168.263 108.88 167.423 109.348 167.423 110.284C167.423 110.5 167.459 110.692 167.531 110.86C167.603 111.028 167.747 111.196 167.963 111.364C168.179 111.508 168.467 111.676 168.827 111.868C169.211 112.036 169.691 112.228 170.267 112.444C171.443 112.876 172.415 113.308 173.183 113.74C173.951 114.148 174.551 114.604 174.983 115.108C175.439 115.588 175.751 116.128 175.919 116.728C176.111 117.328 176.207 118.024 176.207 118.816C176.207 120.688 175.499 122.104 174.083 123.064C172.691 124.024 170.711 124.504 168.143 124.504C166.463 124.504 165.059 124.36 163.931 124.072C162.827 123.784 162.059 123.544 161.627 123.352L162.527 118.996C163.439 119.356 164.375 119.644 165.335 119.86C166.295 120.052 167.243 120.148 168.179 120.148ZM180.215 124V96.928L185.579 96.064V105.136C185.939 105.016 186.395 104.908 186.947 104.812C187.523 104.692 188.075 104.632 188.603 104.632C190.139 104.632 191.411 104.848 192.419 105.28C193.451 105.688 194.267 106.276 194.867 107.044C195.491 107.812 195.923 108.724 196.163 109.78C196.427 110.836 196.559 112.012 196.559 113.308V124H191.195V113.956C191.195 112.228 190.967 111.004 190.511 110.284C190.079 109.564 189.263 109.204 188.063 109.204C187.583 109.204 187.127 109.252 186.695 109.348C186.287 109.42 185.915 109.504 185.579 109.6V124H180.215ZM208.651 120.256C209.179 120.256 209.683 120.244 210.163 120.22C210.643 120.196 211.027 120.16 211.315 120.112V116.044C211.099 115.996 210.775 115.948 210.343 115.9C209.911 115.852 209.515 115.828 209.155 115.828C208.651 115.828 208.171 115.864 207.715 115.936C207.283 115.984 206.899 116.092 206.563 116.26C206.227 116.428 205.963 116.656 205.771 116.944C205.579 117.232 205.483 117.592 205.483 118.024C205.483 118.864 205.759 119.452 206.311 119.788C206.887 120.1 207.667 120.256 208.651 120.256ZM208.219 104.56C209.803 104.56 211.123 104.74 212.179 105.1C213.235 105.46 214.075 105.976 214.699 106.648C215.347 107.32 215.803 108.136 216.067 109.096C216.331 110.056 216.463 111.124 216.463 112.3V123.46C215.695 123.628 214.627 123.82 213.259 124.036C211.891 124.276 210.235 124.396 208.291 124.396C207.067 124.396 205.951 124.288 204.943 124.072C203.959 123.856 203.107 123.508 202.387 123.028C201.667 122.524 201.115 121.876 200.731 121.084C200.347 120.292 200.155 119.32 200.155 118.168C200.155 117.064 200.371 116.128 200.803 115.36C201.259 114.592 201.859 113.98 202.603 113.524C203.347 113.068 204.199 112.744 205.159 112.552C206.119 112.336 207.115 112.228 208.147 112.228C208.843 112.228 209.455 112.264 209.983 112.336C210.535 112.384 210.979 112.456 211.315 112.552V112.048C211.315 111.136 211.039 110.404 210.487 109.852C209.935 109.3 208.975 109.024 207.607 109.024C206.695 109.024 205.795 109.096 204.907 109.24C204.019 109.36 203.251 109.54 202.603 109.78L201.919 105.46C202.231 105.364 202.615 105.268 203.071 105.172C203.551 105.052 204.067 104.956 204.619 104.884C205.171 104.788 205.747 104.716 206.347 104.668C206.971 104.596 207.595 104.56 208.219 104.56ZM232.725 109.816C232.245 109.696 231.681 109.576 231.033 109.456C230.385 109.312 229.689 109.24 228.945 109.24C228.609 109.24 228.201 109.276 227.721 109.348C227.265 109.396 226.917 109.456 226.677 109.528V124H221.313V106.072C222.273 105.736 223.401 105.424 224.697 105.136C226.017 104.824 227.481 104.668 229.089 104.668C229.377 104.668 229.725 104.692 230.133 104.74C230.541 104.764 230.949 104.812 231.357 104.884C231.765 104.932 232.173 105.004 232.581 105.1C232.989 105.172 233.337 105.268 233.625 105.388L232.725 109.816ZM235.249 114.676C235.249 112.996 235.501 111.532 236.005 110.284C236.533 109.012 237.217 107.956 238.057 107.116C238.897 106.276 239.857 105.64 240.937 105.208C242.041 104.776 243.169 104.56 244.321 104.56C247.009 104.56 249.133 105.388 250.693 107.044C252.253 108.676 253.033 111.088 253.033 114.28C253.033 114.592 253.021 114.94 252.997 115.324C252.973 115.684 252.949 116.008 252.925 116.296H240.757C240.877 117.4 241.393 118.276 242.305 118.924C243.217 119.572 244.441 119.896 245.977 119.896C246.961 119.896 247.921 119.812 248.857 119.644C249.817 119.452 250.597 119.224 251.197 118.96L251.917 123.316C251.629 123.46 251.245 123.604 250.765 123.748C250.285 123.892 249.745 124.012 249.145 124.108C248.569 124.228 247.945 124.324 247.273 124.396C246.601 124.468 245.929 124.504 245.257 124.504C243.553 124.504 242.065 124.252 240.793 123.748C239.545 123.244 238.501 122.56 237.661 121.696C236.845 120.808 236.233 119.764 235.825 118.564C235.441 117.364 235.249 116.068 235.249 114.676ZM247.849 112.624C247.825 112.168 247.741 111.724 247.597 111.292C247.477 110.86 247.273 110.476 246.985 110.14C246.721 109.804 246.373 109.528 245.941 109.312C245.533 109.096 245.017 108.988 244.393 108.988C243.793 108.988 243.277 109.096 242.845 109.312C242.413 109.504 242.053 109.768 241.765 110.104C241.477 110.44 241.249 110.836 241.081 111.292C240.937 111.724 240.829 112.168 240.757 112.624H247.849Z" fill="#F0F0F0"/>
<path d="M177.333 62H161.333C159.861 62 158.667 63.1939 158.667 64.6667V78C158.667 79.4728 159.861 80.6667 161.333 80.6667H177.333C178.806 80.6667 180 79.4728 180 78V64.6667C180 63.1939 178.806 62 177.333 62Z" fill="white"/>
<path d="M171.068 37.8072L129.603 72.7365C127.982 74.1028 127.774 76.5252 129.141 78.1472C130.507 79.7691 132.929 79.9763 134.551 78.61L176.016 43.6807C177.638 42.3144 177.845 39.892 176.479 38.2701C175.113 36.6481 172.69 36.4409 171.068 37.8072Z" fill="#F6F6F6"/>
<path d="M73.03 139.16V140H68.86V133.07H69.83V139.16H73.03ZM75.7455 139.33C75.9655 139.33 76.1589 139.327 76.3255 139.32C76.4989 139.307 76.6422 139.287 76.7555 139.26V137.71C76.6889 137.677 76.5789 137.65 76.4255 137.63C76.2789 137.603 76.0989 137.59 75.8855 137.59C75.7455 137.59 75.5955 137.6 75.4355 137.62C75.2822 137.64 75.1389 137.683 75.0055 137.75C74.8789 137.81 74.7722 137.897 74.6855 138.01C74.5989 138.117 74.5555 138.26 74.5555 138.44C74.5555 138.773 74.6622 139.007 74.8755 139.14C75.0889 139.267 75.3789 139.33 75.7455 139.33ZM75.6655 134.67C76.0389 134.67 76.3522 134.72 76.6055 134.82C76.8655 134.913 77.0722 135.05 77.2255 135.23C77.3855 135.403 77.4989 135.613 77.5655 135.86C77.6322 136.1 77.6655 136.367 77.6655 136.66V139.91C77.5855 139.923 77.4722 139.943 77.3255 139.97C77.1855 139.99 77.0255 140.01 76.8455 140.03C76.6655 140.05 76.4689 140.067 76.2555 140.08C76.0489 140.1 75.8422 140.11 75.6355 140.11C75.3422 140.11 75.0722 140.08 74.8255 140.02C74.5789 139.96 74.3655 139.867 74.1855 139.74C74.0055 139.607 73.8655 139.433 73.7655 139.22C73.6655 139.007 73.6155 138.75 73.6155 138.45C73.6155 138.163 73.6722 137.917 73.7855 137.71C73.9055 137.503 74.0655 137.337 74.2655 137.21C74.4655 137.083 74.6989 136.99 74.9655 136.93C75.2322 136.87 75.5122 136.84 75.8055 136.84C75.8989 136.84 75.9955 136.847 76.0955 136.86C76.1955 136.867 76.2889 136.88 76.3755 136.9C76.4689 136.913 76.5489 136.927 76.6155 136.94C76.6822 136.953 76.7289 136.963 76.7555 136.97V136.71C76.7555 136.557 76.7389 136.407 76.7055 136.26C76.6722 136.107 76.6122 135.973 76.5255 135.86C76.4389 135.74 76.3189 135.647 76.1655 135.58C76.0189 135.507 75.8255 135.47 75.5855 135.47C75.2789 135.47 75.0089 135.493 74.7755 135.54C74.5489 135.58 74.3789 135.623 74.2655 135.67L74.1555 134.9C74.2755 134.847 74.4755 134.797 74.7555 134.75C75.0355 134.697 75.3389 134.67 75.6655 134.67ZM82.7346 139.33C83.1146 139.33 83.3946 139.28 83.5746 139.18C83.7613 139.08 83.8546 138.92 83.8546 138.7C83.8546 138.473 83.7646 138.293 83.5846 138.16C83.4046 138.027 83.1079 137.877 82.6946 137.71C82.4946 137.63 82.3013 137.55 82.1146 137.47C81.9346 137.383 81.7779 137.283 81.6446 137.17C81.5113 137.057 81.4046 136.92 81.3246 136.76C81.2446 136.6 81.2046 136.403 81.2046 136.17C81.2046 135.71 81.3746 135.347 81.7146 135.08C82.0546 134.807 82.5179 134.67 83.1046 134.67C83.2513 134.67 83.3979 134.68 83.5446 134.7C83.6913 134.713 83.8279 134.733 83.9546 134.76C84.0813 134.78 84.1913 134.803 84.2846 134.83C84.3846 134.857 84.4613 134.88 84.5146 134.9L84.3446 135.7C84.2446 135.647 84.0879 135.593 83.8746 135.54C83.6613 135.48 83.4046 135.45 83.1046 135.45C82.8446 135.45 82.6179 135.503 82.4246 135.61C82.2313 135.71 82.1346 135.87 82.1346 136.09C82.1346 136.203 82.1546 136.303 82.1946 136.39C82.2413 136.477 82.3079 136.557 82.3946 136.63C82.4879 136.697 82.6013 136.76 82.7346 136.82C82.8679 136.88 83.0279 136.943 83.2146 137.01C83.4613 137.103 83.6813 137.197 83.8746 137.29C84.0679 137.377 84.2313 137.48 84.3646 137.6C84.5046 137.72 84.6113 137.867 84.6846 138.04C84.7579 138.207 84.7946 138.413 84.7946 138.66C84.7946 139.14 84.6146 139.503 84.2546 139.75C83.9013 139.997 83.3946 140.12 82.7346 140.12C82.2746 140.12 81.9146 140.08 81.6546 140C81.3946 139.927 81.2179 139.87 81.1246 139.83L81.2946 139.03C81.4013 139.07 81.5713 139.13 81.8046 139.21C82.0379 139.29 82.3479 139.33 82.7346 139.33ZM85.9875 140V132.4L86.9175 132.24V134.9C87.0908 134.833 87.2742 134.783 87.4675 134.75C87.6675 134.71 87.8642 134.69 88.0575 134.69C88.4708 134.69 88.8142 134.75 89.0875 134.87C89.3608 134.983 89.5775 135.147 89.7375 135.36C89.9042 135.567 90.0208 135.817 90.0875 136.11C90.1542 136.403 90.1875 136.727 90.1875 137.08V140H89.2575V137.28C89.2575 136.96 89.2342 136.687 89.1875 136.46C89.1475 136.233 89.0775 136.05 88.9775 135.91C88.8775 135.77 88.7442 135.67 88.5775 135.61C88.4108 135.543 88.2042 135.51 87.9575 135.51C87.8575 135.51 87.7542 135.517 87.6475 135.53C87.5408 135.543 87.4375 135.56 87.3375 135.58C87.2442 135.593 87.1575 135.61 87.0775 135.63C87.0042 135.65 86.9508 135.667 86.9175 135.68V140H85.9875ZM93.4604 139.33C93.6804 139.33 93.8737 139.327 94.0404 139.32C94.2137 139.307 94.3571 139.287 94.4704 139.26V137.71C94.4037 137.677 94.2937 137.65 94.1404 137.63C93.9937 137.603 93.8137 137.59 93.6004 137.59C93.4604 137.59 93.3104 137.6 93.1504 137.62C92.9971 137.64 92.8537 137.683 92.7204 137.75C92.5937 137.81 92.4871 137.897 92.4004 138.01C92.3137 138.117 92.2704 138.26 92.2704 138.44C92.2704 138.773 92.3771 139.007 92.5904 139.14C92.8037 139.267 93.0937 139.33 93.4604 139.33ZM93.3804 134.67C93.7537 134.67 94.0671 134.72 94.3204 134.82C94.5804 134.913 94.7871 135.05 94.9404 135.23C95.1004 135.403 95.2137 135.613 95.2804 135.86C95.3471 136.1 95.3804 136.367 95.3804 136.66V139.91C95.3004 139.923 95.1871 139.943 95.0404 139.97C94.9004 139.99 94.7404 140.01 94.5604 140.03C94.3804 140.05 94.1837 140.067 93.9704 140.08C93.7637 140.1 93.5571 140.11 93.3504 140.11C93.0571 140.11 92.7871 140.08 92.5404 140.02C92.2937 139.96 92.0804 139.867 91.9004 139.74C91.7204 139.607 91.5804 139.433 91.4804 139.22C91.3804 139.007 91.3304 138.75 91.3304 138.45C91.3304 138.163 91.3871 137.917 91.5004 137.71C91.6204 137.503 91.7804 137.337 91.9804 137.21C92.1804 137.083 92.4137 136.99 92.6804 136.93C92.9471 136.87 93.2271 136.84 93.5204 136.84C93.6137 136.84 93.7104 136.847 93.8104 136.86C93.9104 136.867 94.0037 136.88 94.0904 136.9C94.1837 136.913 94.2637 136.927 94.3304 136.94C94.3971 136.953 94.4437 136.963 94.4704 136.97V136.71C94.4704 136.557 94.4537 136.407 94.4204 136.26C94.3871 136.107 94.3271 135.973 94.2404 135.86C94.1537 135.74 94.0337 135.647 93.8804 135.58C93.7337 135.507 93.5404 135.47 93.3004 135.47C92.9937 135.47 92.7237 135.493 92.4904 135.54C92.2637 135.58 92.0937 135.623 91.9804 135.67L91.8704 134.9C91.9904 134.847 92.1904 134.797 92.4704 134.75C92.7504 134.697 93.0537 134.67 93.3804 134.67ZM98.845 134.69C98.925 134.69 99.015 134.697 99.115 134.71C99.2217 134.717 99.325 134.73 99.425 134.75C99.525 134.763 99.615 134.78 99.695 134.8C99.7817 134.813 99.845 134.827 99.885 134.84L99.725 135.65C99.6517 135.623 99.5283 135.593 99.355 135.56C99.1883 135.52 98.9717 135.5 98.705 135.5C98.5317 135.5 98.3583 135.52 98.185 135.56C98.0183 135.593 97.9083 135.617 97.855 135.63V140H96.925V135.02C97.145 134.94 97.4183 134.867 97.745 134.8C98.0717 134.727 98.4383 134.69 98.845 134.69ZM100.492 137.41C100.492 136.95 100.559 136.55 100.692 136.21C100.826 135.863 101.002 135.577 101.222 135.35C101.442 135.123 101.696 134.953 101.982 134.84C102.269 134.727 102.562 134.67 102.862 134.67C103.562 134.67 104.099 134.89 104.472 135.33C104.846 135.763 105.032 136.427 105.032 137.32C105.032 137.36 105.032 137.413 105.032 137.48C105.032 137.54 105.029 137.597 105.022 137.65H101.462C101.502 138.19 101.659 138.6 101.932 138.88C102.206 139.16 102.632 139.3 103.212 139.3C103.539 139.3 103.812 139.273 104.032 139.22C104.259 139.16 104.429 139.103 104.542 139.05L104.672 139.83C104.559 139.89 104.359 139.953 104.072 140.02C103.792 140.087 103.472 140.12 103.112 140.12C102.659 140.12 102.266 140.053 101.932 139.92C101.606 139.78 101.336 139.59 101.122 139.35C100.909 139.11 100.749 138.827 100.642 138.5C100.542 138.167 100.492 137.803 100.492 137.41ZM104.062 136.9C104.069 136.48 103.962 136.137 103.742 135.87C103.529 135.597 103.232 135.46 102.852 135.46C102.639 135.46 102.449 135.503 102.282 135.59C102.122 135.67 101.986 135.777 101.872 135.91C101.759 136.043 101.669 136.197 101.602 136.37C101.542 136.543 101.502 136.72 101.482 136.9H104.062ZM108.393 137.41C108.393 136.95 108.459 136.55 108.593 136.21C108.726 135.863 108.903 135.577 109.123 135.35C109.343 135.123 109.596 134.953 109.883 134.84C110.169 134.727 110.463 134.67 110.763 134.67C111.463 134.67 111.999 134.89 112.373 135.33C112.746 135.763 112.933 136.427 112.933 137.32C112.933 137.36 112.933 137.413 112.933 137.48C112.933 137.54 112.929 137.597 112.923 137.65H109.363C109.403 138.19 109.559 138.6 109.833 138.88C110.106 139.16 110.533 139.3 111.113 139.3C111.439 139.3 111.713 139.273 111.933 139.22C112.159 139.16 112.329 139.103 112.443 139.05L112.573 139.83C112.459 139.89 112.259 139.953 111.973 140.02C111.693 140.087 111.373 140.12 111.013 140.12C110.559 140.12 110.166 140.053 109.833 139.92C109.506 139.78 109.236 139.59 109.023 139.35C108.809 139.11 108.649 138.827 108.543 138.5C108.443 138.167 108.393 137.803 108.393 137.41ZM111.963 136.9C111.969 136.48 111.863 136.137 111.643 135.87C111.429 135.597 111.133 135.46 110.753 135.46C110.539 135.46 110.349 135.503 110.183 135.59C110.023 135.67 109.886 135.777 109.773 135.91C109.659 136.043 109.569 136.197 109.503 136.37C109.443 136.543 109.403 136.72 109.383 136.9H111.963ZM116.583 134.95C116.797 134.897 117.077 134.84 117.423 134.78C117.777 134.72 118.183 134.69 118.643 134.69C118.977 134.69 119.257 134.737 119.483 134.83C119.71 134.917 119.9 135.047 120.053 135.22C120.1 135.187 120.173 135.14 120.273 135.08C120.373 135.02 120.497 134.963 120.643 134.91C120.79 134.85 120.953 134.8 121.133 134.76C121.313 134.713 121.507 134.69 121.713 134.69C122.113 134.69 122.44 134.75 122.693 134.87C122.947 134.983 123.143 135.147 123.283 135.36C123.43 135.573 123.527 135.827 123.573 136.12C123.627 136.413 123.653 136.733 123.653 137.08V140H122.723V137.28C122.723 136.973 122.707 136.71 122.673 136.49C122.647 136.27 122.59 136.087 122.503 135.94C122.423 135.793 122.31 135.687 122.163 135.62C122.023 135.547 121.84 135.51 121.613 135.51C121.3 135.51 121.04 135.553 120.833 135.64C120.633 135.72 120.497 135.793 120.423 135.86C120.477 136.033 120.517 136.223 120.543 136.43C120.57 136.637 120.583 136.853 120.583 137.08V140H119.653V137.28C119.653 136.973 119.637 136.71 119.603 136.49C119.57 136.27 119.51 136.087 119.423 135.94C119.343 135.793 119.23 135.687 119.083 135.62C118.943 135.547 118.763 135.51 118.543 135.51C118.45 135.51 118.35 135.513 118.243 135.52C118.137 135.527 118.033 135.537 117.933 135.55C117.84 135.557 117.753 135.567 117.673 135.58C117.593 135.593 117.54 135.603 117.513 135.61V140H116.583V134.95ZM126.956 139.33C127.176 139.33 127.37 139.327 127.536 139.32C127.71 139.307 127.853 139.287 127.966 139.26V137.71C127.9 137.677 127.79 137.65 127.636 137.63C127.49 137.603 127.31 137.59 127.096 137.59C126.956 137.59 126.806 137.6 126.646 137.62C126.493 137.64 126.35 137.683 126.216 137.75C126.09 137.81 125.983 137.897 125.896 138.01C125.81 138.117 125.766 138.26 125.766 138.44C125.766 138.773 125.873 139.007 126.086 139.14C126.3 139.267 126.59 139.33 126.956 139.33ZM126.876 134.67C127.25 134.67 127.563 134.72 127.816 134.82C128.076 134.913 128.283 135.05 128.436 135.23C128.596 135.403 128.71 135.613 128.776 135.86C128.843 136.1 128.876 136.367 128.876 136.66V139.91C128.796 139.923 128.683 139.943 128.536 139.97C128.396 139.99 128.236 140.01 128.056 140.03C127.876 140.05 127.68 140.067 127.466 140.08C127.26 140.1 127.053 140.11 126.846 140.11C126.553 140.11 126.283 140.08 126.036 140.02C125.79 139.96 125.576 139.867 125.396 139.74C125.216 139.607 125.076 139.433 124.976 139.22C124.876 139.007 124.826 138.75 124.826 138.45C124.826 138.163 124.883 137.917 124.996 137.71C125.116 137.503 125.276 137.337 125.476 137.21C125.676 137.083 125.91 136.99 126.176 136.93C126.443 136.87 126.723 136.84 127.016 136.84C127.11 136.84 127.206 136.847 127.306 136.86C127.406 136.867 127.5 136.88 127.586 136.9C127.68 136.913 127.76 136.927 127.826 136.94C127.893 136.953 127.94 136.963 127.966 136.97V136.71C127.966 136.557 127.95 136.407 127.916 136.26C127.883 136.107 127.823 135.973 127.736 135.86C127.65 135.74 127.53 135.647 127.376 135.58C127.23 135.507 127.036 135.47 126.796 135.47C126.49 135.47 126.22 135.493 125.986 135.54C125.76 135.58 125.59 135.623 125.476 135.67L125.366 134.9C125.486 134.847 125.686 134.797 125.966 134.75C126.246 134.697 126.55 134.67 126.876 134.67ZM131.351 140H130.421V134.8H131.351V140ZM130.881 133.86C130.714 133.86 130.571 133.807 130.451 133.7C130.338 133.587 130.281 133.437 130.281 133.25C130.281 133.063 130.338 132.917 130.451 132.81C130.571 132.697 130.714 132.64 130.881 132.64C131.048 132.64 131.188 132.697 131.301 132.81C131.421 132.917 131.481 133.063 131.481 133.25C131.481 133.437 131.421 133.587 131.301 133.7C131.188 133.807 131.048 133.86 130.881 133.86ZM136.195 140H135.265V134.8H136.195V140ZM135.725 133.86C135.558 133.86 135.415 133.807 135.295 133.7C135.182 133.587 135.125 133.437 135.125 133.25C135.125 133.063 135.182 132.917 135.295 132.81C135.415 132.697 135.558 132.64 135.725 132.64C135.892 132.64 136.032 132.697 136.145 132.81C136.265 132.917 136.325 133.063 136.325 133.25C136.325 133.437 136.265 133.587 136.145 133.7C136.032 133.807 135.892 133.86 135.725 133.86ZM137.504 137.41C137.504 136.95 137.571 136.55 137.704 136.21C137.837 135.863 138.014 135.577 138.234 135.35C138.454 135.123 138.707 134.953 138.994 134.84C139.281 134.727 139.574 134.67 139.874 134.67C140.574 134.67 141.111 134.89 141.484 135.33C141.857 135.763 142.044 136.427 142.044 137.32C142.044 137.36 142.044 137.413 142.044 137.48C142.044 137.54 142.041 137.597 142.034 137.65H138.474C138.514 138.19 138.671 138.6 138.944 138.88C139.217 139.16 139.644 139.3 140.224 139.3C140.551 139.3 140.824 139.273 141.044 139.22C141.271 139.16 141.441 139.103 141.554 139.05L141.684 139.83C141.571 139.89 141.371 139.953 141.084 140.02C140.804 140.087 140.484 140.12 140.124 140.12C139.671 140.12 139.277 140.053 138.944 139.92C138.617 139.78 138.347 139.59 138.134 139.35C137.921 139.11 137.761 138.827 137.654 138.5C137.554 138.167 137.504 137.803 137.504 137.41ZM141.074 136.9C141.081 136.48 140.974 136.137 140.754 135.87C140.541 135.597 140.244 135.46 139.864 135.46C139.651 135.46 139.461 135.503 139.294 135.59C139.134 135.67 138.997 135.777 138.884 135.91C138.771 136.043 138.681 136.197 138.614 136.37C138.554 136.543 138.514 136.72 138.494 136.9H141.074ZM145.41 132.24C145.683 132.24 145.917 132.26 146.11 132.3C146.31 132.34 146.45 132.377 146.53 132.41L146.36 133.21C146.28 133.17 146.167 133.133 146.02 133.1C145.873 133.06 145.693 133.04 145.48 133.04C145.047 133.04 144.743 133.16 144.57 133.4C144.397 133.633 144.31 133.95 144.31 134.35V134.8H146.31V135.58H144.31V140H143.38V134.33C143.38 133.663 143.543 133.15 143.87 132.79C144.197 132.423 144.71 132.24 145.41 132.24ZM148.108 134.8H150.078V135.58H148.108V137.98C148.108 138.24 148.128 138.457 148.168 138.63C148.208 138.797 148.268 138.93 148.348 139.03C148.428 139.123 148.528 139.19 148.648 139.23C148.768 139.27 148.908 139.29 149.068 139.29C149.348 139.29 149.571 139.26 149.738 139.2C149.911 139.133 150.031 139.087 150.098 139.06L150.278 139.83C150.184 139.877 150.021 139.933 149.788 140C149.554 140.073 149.288 140.11 148.988 140.11C148.634 140.11 148.341 140.067 148.108 139.98C147.881 139.887 147.698 139.75 147.558 139.57C147.418 139.39 147.318 139.17 147.258 138.91C147.204 138.643 147.178 138.337 147.178 137.99V133.35L148.108 133.19V134.8ZM152.191 140H151.261V134.8H152.191V140ZM151.721 133.86C151.554 133.86 151.411 133.807 151.291 133.7C151.178 133.587 151.121 133.437 151.121 133.25C151.121 133.063 151.178 132.917 151.291 132.81C151.411 132.697 151.554 132.64 151.721 132.64C151.888 132.64 152.028 132.697 152.141 132.81C152.261 132.917 152.321 133.063 152.321 133.25C152.321 133.437 152.261 133.587 152.141 133.7C152.028 133.807 151.888 133.86 151.721 133.86ZM153.79 134.95C154.004 134.897 154.287 134.84 154.64 134.78C154.994 134.72 155.4 134.69 155.86 134.69C156.274 134.69 156.617 134.75 156.89 134.87C157.164 134.983 157.38 135.147 157.54 135.36C157.707 135.567 157.824 135.817 157.89 136.11C157.957 136.403 157.99 136.727 157.99 137.08V140H157.06V137.28C157.06 136.96 157.037 136.687 156.99 136.46C156.95 136.233 156.88 136.05 156.78 135.91C156.68 135.77 156.547 135.67 156.38 135.61C156.214 135.543 156.007 135.51 155.76 135.51C155.66 135.51 155.557 135.513 155.45 135.52C155.344 135.527 155.24 135.537 155.14 135.55C155.047 135.557 154.96 135.567 154.88 135.58C154.807 135.593 154.754 135.603 154.72 135.61V140H153.79V134.95ZM160.632 139.46C160.632 139.64 160.572 139.797 160.452 139.93C160.332 140.063 160.169 140.13 159.962 140.13C159.756 140.13 159.592 140.063 159.472 139.93C159.352 139.797 159.292 139.64 159.292 139.46C159.292 139.28 159.352 139.123 159.472 138.99C159.592 138.857 159.756 138.79 159.962 138.79C160.169 138.79 160.332 138.857 160.452 138.99C160.572 139.123 160.632 139.28 160.632 139.46Z" fill="#E5E5E5"/>
<defs>
<linearGradient id="paint0_linear" x1="153.941" y1="22.4221" x2="175.605" y2="172.222" gradientUnits="userSpaceOnUse">
<stop stop-color="#4DC67D"/>
<stop offset="1" stop-color="#514967"/>
</linearGradient>
</defs>
</svg>
