<svg width="26" height="22" viewBox="0 0 26 22" fill="none" xmlns="http://www.w3.org/2000/svg">
<path d="M24 13H16.5C15.8096 13 15.25 13.5596 15.25 14.25V20.5C15.25 21.1904 15.8096 21.75 16.5 21.75H24C24.6904 21.75 25.25 21.1904 25.25 20.5V14.25C25.25 13.5596 24.6904 13 24 13Z" fill="#F6F6F6"/>
<path d="M21.0633 1.65961L1.6266 18.0328C0.866327 18.6732 0.769181 19.8087 1.40962 20.569C2.05007 21.3293 3.18557 21.4264 3.94585 20.786L23.3826 4.41281C24.1428 3.77237 24.24 2.63686 23.5995 1.87659C22.9591 1.11631 21.8236 1.01917 21.0633 1.65961Z" fill="#F6F6F6"/>
</svg>
